<?xml version="1.0" encoding="UTF-8" standalone="no"?>
<svg width="22px" height="25px" viewBox="0 0 22 25" version="1.1" xmlns="http://www.w3.org/2000/svg" xmlns:xlink="http://www.w3.org/1999/xlink" xmlns:sketch="http://www.bohemiancoding.com/sketch/ns">
    <!-- Generator: Sketch 3.3.3 (12072) - http://www.bohemiancoding.com/sketch -->
    <title>reminder</title>
    <desc>Created with Sketch.</desc>
    <defs></defs>
    <g id="Page-1" stroke="none" stroke-width="1" fill="none" fill-rule="evenodd" sketch:type="MSPage">
        <g id="PushPin-Buttons-Copy" sketch:type="MSArtboardGroup" transform="translate(-226.000000, -540.000000)" stroke="#000000" stroke-width="2">
            <g id="Flights-Copy-4" sketch:type="MSLayerGroup" transform="translate(41.000000, 533.000000)">
                <g id="reminder" transform="translate(186.000000, 8.000000)" sketch:type="MSShapeGroup">
                    <path d="M16,12 L16,0 L12,0 L12,7 L0,7 L0,15 L3,18 L3,23 L14,23 L14,19 L17,15 L17,12 L16,12 Z" id="Shape" fill="#FFFFFF"></path>
                    <path d="M12,7 L12,12" id="Shape"></path>
                    <path d="M8,14 L0,14" id="Shape"></path>
                    <path d="M12,16 L8,16 L8,12 L17,12" id="Shape"></path>
                    <path d="M4,7 L4,14" id="Shape"></path>
                    <path d="M8,7 L8,14" id="Shape"></path>
                    <path d="M12,5 L16,5" id="Shape"></path>
                    <path d="M16,5 L20,9" id="Shape"></path>
                    <path d="M16,5 L20,1" id="Shape"></path>
                </g>
            </g>
        </g>
    </g>
</svg>